<svg width="96" height="96" viewBox="0 0 3600.000000 3600.000000" preserveAspectRatio="xMidYMid meet">
		<g transform="translate(0.000000,3600.000000) scale(0.100000,-0.100000)" fill="#000000" stroke="none">
			<path d="M9920 24869 c-77 -8 -165 -41 -201 -75 -14 -13 -29 -24 -35 -24 -5 0
-47 -65 -94 -144 -47 -79 -97 -152 -112 -162 -17 -12 -24 -22 -18 -29 10 -12
-94 -195 -110 -195 -9 0 -60 -91 -61 -107 0 -5 -425 -715 -944 -1580 -520
-865 -945 -1580 -945 -1589 0 -9 -11 -32 -25 -50 -21 -27 -27 -49 -32 -114 -3
-44 -10 -83 -15 -86 -26 -16 9 -305 42 -338 5 -5 10 -20 10 -31 0 -12 13 -40
29 -62 16 -23 27 -44 23 -48 -3 -3 -2 -9 4 -13 12 -8 84 -126 84 -137 0 -4 19
-35 43 -69 24 -33 46 -68 50 -76 3 -8 35 -62 71 -120 36 -58 84 -141 106 -185
23 -44 45 -82 50 -85 4 -3 254 -414 555 -915 301 -500 553 -914 561 -920 11
-8 394 -640 394 -650 0 -2 -19 -6 -42 -10 -136 -22 -559 -110 -713 -149 -1355
-338 -2582 -1003 -3670 -1987 -192 -175 -573 -562 -738 -750 -493 -565 -898
-1141 -1255 -1785 -113 -204 -303 -576 -313 -614 -4 -14 -19 -52 -32 -85 -51
-122 -64 -403 -26 -569 31 -134 113 -296 187 -367 122 -119 232 -186 386 -237
l111 -37 2235 -3 c1731 -2 2244 0 2275 9 248 75 364 139 491 271 186 191 264
411 250 708 -6 141 -13 180 -48 269 -12 29 -266 460 -565 958 -298 497 -543
909 -543 916 -2 52 -283 101 -455 79 -180 -24 -321 -90 -441 -207 -118 -116
-207 -280 -206 -381 0 -50 25 -143 41 -154 8 -5 731 -1208 731 -1216 0 -2
-646 -4 -1435 -4 -789 0 -1435 2 -1435 5 0 11 167 274 287 453 591 881 1308
1649 2080 2228 83 63 158 114 167 114 8 0 17 8 21 18 7 19 337 236 560 368
191 112 584 311 785 396 538 229 1091 386 1645 467 156 23 402 47 408 40 2 -2
539 -895 1192 -1984 654 -1089 1217 -2027 1253 -2085 35 -58 67 -112 72 -120
5 -8 122 -204 261 -435 188 -314 266 -434 307 -477 31 -32 58 -55 60 -53 3 2
23 -10 44 -28 48 -39 84 -63 118 -78 188 -85 173 -81 287 -82 60 -1 988 -1
2063 1 1940 2 1956 2 2065 23 61 11 121 27 135 34 14 8 63 33 109 57 144 74
287 216 338 335 66 155 78 342 39 604 -26 173 -73 355 -100 381 -7 7 -57 100
-111 207 -327 644 -777 1323 -1256 1892 -327 389 -788 848 -1184 1180 -290
243 -725 557 -999 720 -45 27 -88 55 -96 62 -8 8 -28 21 -45 29 -16 8 -50 26
-75 40 -25 14 -124 69 -220 122 -96 53 -182 100 -190 106 -8 5 -25 15 -38 20
-13 5 -51 23 -85 39 -826 390 -1573 620 -2402 740 -205 30 -515 60 -688 68
-84 3 -163 9 -175 12 -19 5 -258 396 -1111 1816 l-1087 1810 685 1142 c377
629 688 1143 691 1142 3 0 748 -1237 1655 -2749 1001 -1668 1657 -2752 1669
-2756 10 -3 35 -20 55 -38 57 -50 124 -74 241 -86 100 -10 163 -6 185 10 6 5
30 13 55 20 95 25 173 73 256 156 70 69 89 95 129 180 25 54 51 107 56 116 5
10 9 29 9 43 0 14 5 25 11 25 8 0 10 16 5 53 -4 28 -11 79 -14 112 -7 58 -72
168 -1611 2730 -882 1469 -1614 2684 -1626 2700 -12 17 -133 217 -269 445
-137 228 -262 434 -278 458 -16 24 -31 48 -32 55 -1 7 -10 25 -21 41 -11 16
-20 36 -21 44 -2 8 -11 24 -22 36 -11 11 -26 35 -35 51 -25 50 -120 126 -188
150 -60 22 -160 32 -239 24z m1870 -9149 c1162 -219 2292 -781 3295 -1638 288
-246 785 -742 966 -963 238 -292 312 -386 426 -539 72 -96 180 -247 240 -335
105 -153 333 -508 333 -520 0 -3 -685 -4 -1522 -3 l-1522 3 -69 115 c-39 63
-584 971 -1213 2018 -897 1492 -1138 1901 -1121 1897 12 -2 96 -18 187 -35z" />
			<path d="M21069 24877 c-3 -4 -39 -13 -80 -21 -333 -64 -607 -289 -736 -606
-42 -102 -61 -192 -73 -351 -7 -89 -10 -2254 -10 -6506 l0 -6372 24 -55 c76
-171 247 -339 417 -407 135 -54 50 -51 1479 -50 1354 2 1461 4 1633 41 248 54
511 210 679 404 183 212 275 420 318 721 20 134 20 184 18 1210 l-3 1070 -31
65 c-139 291 -455 432 -759 340 -192 -59 -357 -221 -416 -410 -20 -64 -20 -86
-19 -1112 l1 -1048 -981 0 -980 0 0 5922 0 5921 2983 -6 c2890 -7 2985 -7
3078 -26 199 -40 354 -107 629 -273 1083 -654 1790 -1850 1838 -3108 8 -212
-1 -471 -23 -640 -116 -905 -550 -1750 -1194 -2327 l-114 -102 -46 44 c-25 24
-136 119 -246 210 -1027 854 -2233 1576 -3450 2065 -66 27 -150 62 -188 79
-186 86 -341 107 -509 72 -235 -49 -389 -130 -541 -282 -75 -76 -177 -218
-192 -269 -4 -14 -18 -43 -31 -65 -33 -58 -57 -175 -49 -238 3 -29 10 -718 13
-1532 l7 -1480 41 -98 c51 -120 94 -191 160 -268 105 -122 254 -216 406 -259
72 -20 92 -21 1444 -20 1377 0 1415 1 1604 36 47 9 101 16 120 15 41 -1 129
22 340 91 266 86 549 204 807 337 l131 68 114 -126 c62 -69 134 -151 158 -181
25 -30 48 -57 53 -58 11 -5 299 -351 351 -422 24 -33 52 -67 61 -77 10 -9 72
-89 138 -177 391 -519 728 -1040 1042 -1611 164 -298 575 -1160 575 -1205 0
-7 -577 -10 -1787 -10 -2053 0 -1815 13 -1939 -108 -178 -173 -257 -341 -257
-547 0 -167 52 -307 169 -454 59 -73 146 -150 188 -165 33 -12 4258 -8 4394 4
234 21 391 81 505 194 190 187 230 448 132 861 -40 169 -64 233 -167 455 -22
47 -73 166 -113 266 -450 1110 -1032 2123 -1769 3079 -188 245 -467 578 -631
756 -44 48 -106 117 -137 154 l-57 67 152 152 c330 326 606 669 817 1013 46
76 114 185 151 243 165 257 219 366 279 565 167 553 243 1027 257 1590 31
1310 -388 2529 -1193 3471 -136 159 -439 455 -593 579 -427 345 -875 598
-1385 785 -77 28 -174 60 -215 71 -197 52 -20 49 -3526 56 -1793 3 -3263 3
-3266 0z m3916 -6545 c861 -430 1773 -1037 2561 -1704 73 -62 133 -116 134
-119 0 -4 -16 -10 -35 -13 -20 -4 -51 -16 -69 -27 -18 -11 -62 -26 -97 -33
-87 -19 -155 -35 -212 -52 -26 -7 -85 -21 -130 -29 -45 -8 -116 -22 -157 -30
-155 -30 -315 -35 -1267 -35 l-963 0 0 1076 0 1075 23 -7 c12 -4 108 -49 212
-102z" />
		</g>
	</svg>